<svg id="Layer_1" data-name="Layer 1" xmlns="http://www.w3.org/2000/svg" viewBox="0 0 37.28 37.28"><defs><style>.cls-1{fill:#fef3da;}.cls-2{fill:#49beed;}</style></defs><circle class="cls-1" cx="18.64" cy="18.64" r="18.64"/><path class="cls-2" d="M308.43,407.26V425a2.61,2.61,0,0,0,2.61,2.61h0a2.61,2.61,0,0,0,2.61-2.61v-17.7a2.61,2.61,0,0,0-2.61-2.61h0A2.61,2.61,0,0,0,308.43,407.26Z" transform="translate(-300.17 -396.68)"/><path class="cls-2" d="M330.77,407.41h0a2.71,2.71,0,0,1-2.71,2.72l-14.41,0h-2.5a2.72,2.72,0,0,1-2.72-2.72v-.06a2.72,2.72,0,0,1,2.72-2.72l16.9,0A2.73,2.73,0,0,1,330.77,407.41Z" transform="translate(-300.17 -396.68)"/><polygon class="cls-2" points="22.63 24.91 9.58 24.91 11.04 20.39 21.21 20.38 22.63 24.91"/><path class="cls-2" d="M317.11,406.88l10.71,17a2.39,2.39,0,0,1-2,3.66h0a2.37,2.37,0,0,1-2-1.12l-10.67-17a2.38,2.38,0,0,1,1-3.44h0A2.38,2.38,0,0,1,317.11,406.88Z" transform="translate(-300.17 -396.68)"/><circle class="cls-2" cx="28.02" cy="22.3" r="1.92"/></svg>